<svg width="24" height="24" viewBox="0 0 24 24" fill="none" xmlns="http://www.w3.org/2000/svg">
<g clip-path="url(#clip0_1603_45743)">
<path d="M9.64713 14.5242L10.0007 14.8764L10.3536 14.5236L16.5887 8.28836L17.2941 8.99875L10 16.2929L6.70711 13L7.41068 12.2964L9.64713 14.5242ZM2.5 12C2.5 6.75614 6.75614 2.5 12 2.5C17.2439 2.5 21.5 6.75614 21.5 12C21.5 17.2439 17.2439 21.5 12 21.5C6.75614 21.5 2.5 17.2439 2.5 12ZM3.5 12C3.5 16.6861 7.31386 20.5 12 20.5C16.6861 20.5 20.5 16.6861 20.5 12C20.5 7.31386 16.6861 3.5 12 3.5C7.31386 3.5 3.5 7.31386 3.5 12Z" fill="#384351" stroke="#318432"/>
</g>
<defs>
<clipPath id="clip0_1603_45743">
<rect width="24" height="24" fill="white"/>
</clipPath>
</defs>
</svg>
